# xmcd
#
# Track frame offsets:
#	150
#	18368
#	39121
#	60879
#
# Disc length: 1108 seconds
# Revision: 0
# Processed by: cddbd v1.5.2PL0 Copyright (c) Steve Scherf et al.
# Submitted via: dBpowerAMP V12.0
#
DISCID=1e045204
DTITLE=John The Revelator - Old Man Rock 'N' Roll
DYEAR=2009
DGENRE=Blues
TTITLE0=One Shot Away
TTITLE1=I Ain't Going Down
TTITLE2=Old Man Rock 'N' Roll
TTITLE3=Yonder Come  The Blues
EXTD=
EXTT0=
EXTT1=
EXTT2=
EXTT3=
PLAYORDER=
